<svg width="16" height="16" viewBox="0 0 16 16" fill="none" xmlns="http://www.w3.org/2000/svg">
<g clip-path="url(#clip0_216_197)">
<path d="M4.69271 14.9554H2.69271C2.33909 14.9554 1.99995 14.8149 1.7499 14.5649C1.49985 14.3148 1.35938 13.9757 1.35938 13.6221V8.9554C1.35937 8.60178 1.49985 8.26264 1.7499 8.0126C1.99995 7.76255 2.33909 7.62207 2.69271 7.62207H4.69271M9.35938 6.28874V3.62207C9.35938 3.09164 9.14866 2.58293 8.77359 2.20786C8.39852 1.83278 7.88981 1.62207 7.35938 1.62207L4.69271 7.62207V14.9554H12.2127C12.5343 14.959 12.8463 14.8463 13.0913 14.6381C13.3363 14.4298 13.4978 14.14 13.546 13.8221L14.466 7.82207C14.495 7.63097 14.4822 7.43586 14.4283 7.25024C14.3744 7.06462 14.2808 6.89293 14.1539 6.74708C14.0271 6.60123 13.8701 6.48469 13.6938 6.40555C13.5174 6.32641 13.326 6.28655 13.1327 6.28874H9.35938Z" stroke="#7C8894" stroke-width="1.5" stroke-linecap="round" stroke-linejoin="round"/>
</g>
<defs>
<clipPath id="clip0_216_197">
<rect width="16" height="16" fill="white"/>
</clipPath>
</defs>
</svg>
